<svg xmlns="http://www.w3.org/2000/svg" width="1504" height="1046" viewBox="0 0 1504 1046">
    
    <defs>
      <linearGradient id="navy" x1="0" x2="1" y1="0" y2="1">
        <stop offset="0" stop-color="#031b40"/>
        <stop offset="1" stop-color="#092a5c"/>
      </linearGradient>
      <linearGradient id="orange" x1="0" x2="1">
        <stop offset="0" stop-color="#fa5902"/>
        <stop offset="1" stop-color="#ff8a00"/>
      </linearGradient>
      <filter id="shadow" x="-20%" y="-20%" width="140%" height="140%">
        <feDropShadow dx="0" dy="18" stdDeviation="18" flood-color="#031b40" flood-opacity=".18"/>
      </filter>
      <pattern id="grid" width="42" height="42" patternUnits="userSpaceOnUse">
        <path d="M42 0H0v42" fill="none" stroke="#092a5c" stroke-width="1" opacity=".08"/>
      </pattern>
    </defs>
    <rect width="1504" height="1046" fill="#f8fafc"/>
    <rect width="1504" height="1046" fill="url(#grid)"/>
    <path d="M0 0h1504v1046H0z" fill="url(#grid)" opacity=".45"/>
    <circle cx="752" cy="520" r="390" fill="#fff" filter="url(#shadow)"/>
    <circle cx="752" cy="520" r="440" fill="none" stroke="#fa5902" stroke-width="8" stroke-dasharray="120 32"/>
    <image href="/images/products/belt-conveyor/main-machine.png" x="132" y="168" width="1240" height="710" preserveAspectRatio="xMidYMid meet"/>
    <rect x="76" y="72" width="530" height="164" rx="24" fill="#fff" stroke="#e5e7eb"/>
    
    <g fill="#fa5902" transform="translate(112 110) skewX(-28)">
      <rect width="10" height="24" rx="1"/>
      <rect x="16" width="10" height="24" rx="1"/>
      <rect x="32" width="10" height="24" rx="1"/>
    </g>
    <text x="178" y="130" font-family="Arial, sans-serif" font-size="22" font-weight="900" fill="#fa5902" letter-spacing="3">Material Handling</text>
    <text x="112" y="198" font-family="Impact, Arial Black, sans-serif" font-size="58" fill="#031b40">Conveyor System</text>
    <rect x="1048" y="758" width="356" height="166" rx="24" fill="#031b40"/>
    <text x="1088" y="824" font-family="Arial, sans-serif" font-size="20" font-weight="900" fill="#fa5902" letter-spacing="3">PRODUCT REVIEW</text>
    <text x="1088" y="872" font-family="Arial, sans-serif" font-size="24" font-weight="800" fill="#fff">Key systems, service points,</text>
    <text x="1088" y="908" font-family="Arial, sans-serif" font-size="24" font-weight="800" fill="#fff">and performance features.</text>
  </svg>