<svg xmlns="http://www.w3.org/2000/svg" width="1498" height="1050" viewBox="0 0 1498 1050">
    
    <defs>
      <linearGradient id="navy" x1="0" x2="1" y1="0" y2="1">
        <stop offset="0" stop-color="#031b40"/>
        <stop offset="1" stop-color="#092a5c"/>
      </linearGradient>
      <linearGradient id="orange" x1="0" x2="1">
        <stop offset="0" stop-color="#fa5902"/>
        <stop offset="1" stop-color="#ff8a00"/>
      </linearGradient>
      <filter id="shadow" x="-20%" y="-20%" width="140%" height="140%">
        <feDropShadow dx="0" dy="18" stdDeviation="18" flood-color="#031b40" flood-opacity=".18"/>
      </filter>
      <pattern id="grid" width="42" height="42" patternUnits="userSpaceOnUse">
        <path d="M42 0H0v42" fill="none" stroke="#092a5c" stroke-width="1" opacity=".08"/>
      </pattern>
    </defs>
    <rect width="1498" height="1050" fill="#031b40"/>
    <image href="/images/products/belt-conveyor/hero.png" x="0" y="0" width="1498" height="850" preserveAspectRatio="xMidYMid slice"/>
    <rect width="1498" height="1050" fill="url(#navy)" opacity=".55"/>
    <rect y="742" width="1498" height="308" fill="#031b40" opacity=".92"/>
    <circle cx="749" cy="454" r="118" fill="#fa5902" filter="url(#shadow)"/>
    <path d="M718 394v120l104-60z" fill="#fff"/>
    
    <g fill="#fa5902" transform="translate(88 804) skewX(-28)">
      <rect width="10" height="24" rx="1"/>
      <rect x="16" width="10" height="24" rx="1"/>
      <rect x="32" width="10" height="24" rx="1"/>
    </g>
    <text x="88" y="884" font-family="Impact, Arial Black, sans-serif" font-size="76" fill="#fff">CONVEYOR <tspan fill="#fa5902">SYSTEM</tspan></text>
    <text x="92" y="946" font-family="Arial, sans-serif" font-size="25" font-weight="800" fill="#fff" opacity=".82" letter-spacing="3">PERFORMANCE VIDEO SHOWCASE</text>
    <rect x="1106" y="826" width="246" height="70" rx="35" fill="#fa5902"/>
    <text x="1162" y="870" font-family="Arial, sans-serif" font-size="20" font-weight="900" fill="#fff" letter-spacing="2">WATCH NOW</text>
  </svg>