<?xml version="1.0" encoding="UTF-8"?>
<svg xmlns="http://www.w3.org/2000/svg" width="256" height="256" viewBox="0 0 256 256" fill="none">
  <g stroke="#fa5902" stroke-width="8" stroke-linecap="round" stroke-linejoin="round">

    <path d="M60 181h122"/>
    <path d="M73 181V65h29v116"/>
    <path d="M73 83l29 18M102 83l-29 18M73 113l29 18M102 113l-29 18M73 143l29 18M102 143l-29 18" stroke-width="5"/>
    <path d="M57 65h112"/>
    <path d="M57 65l35-17 77 17" stroke-width="6"/>
    <path d="M153 65v34" stroke-width="6"/>
    <rect x="144" y="99" width="18" height="17" rx="1"/>
    <rect x="113" y="128" width="29" height="53" rx="1"/>
    <rect x="150" y="108" width="32" height="73" rx="1"/>
    <path d="M122 145h1M122 162h1M134 145h1M134 162h1M160 127h1M160 145h1M160 163h1M173 127h1M173 145h1M173 163h1" stroke-width="5"/>
  
  </g>
</svg>