<svg xmlns="http://www.w3.org/2000/svg" width="790" height="930" viewBox="0 0 790 930">
    
    <defs>
      <linearGradient id="navy" x1="0" x2="1" y1="0" y2="1">
        <stop offset="0" stop-color="#031b40"/>
        <stop offset="1" stop-color="#092a5c"/>
      </linearGradient>
      <linearGradient id="orange" x1="0" x2="1">
        <stop offset="0" stop-color="#fa5902"/>
        <stop offset="1" stop-color="#ff8a00"/>
      </linearGradient>
      <filter id="shadow" x="-20%" y="-20%" width="140%" height="140%">
        <feDropShadow dx="0" dy="18" stdDeviation="18" flood-color="#031b40" flood-opacity=".18"/>
      </filter>
      <pattern id="grid" width="42" height="42" patternUnits="userSpaceOnUse">
        <path d="M42 0H0v42" fill="none" stroke="#092a5c" stroke-width="1" opacity=".08"/>
      </pattern>
    </defs>
    <rect width="790" height="930" rx="28" fill="#f8fafc"/>
    <image href="/images/products/vibrating-screen/hero.png" x="-220" y="0" width="1230" height="676" preserveAspectRatio="xMidYMid slice" opacity=".9"/>
    <rect width="790" height="930" fill="url(#grid)" opacity=".8"/>
    <rect y="500" width="790" height="430" fill="url(#navy)"/>
    <path d="M0 448h790v120L0 648z" fill="url(#navy)" opacity=".96"/>
    
    <g fill="#fa5902" transform="translate(56 548) skewX(-28)">
      <rect width="10" height="24" rx="1"/>
      <rect x="16" width="10" height="24" rx="1"/>
      <rect x="32" width="10" height="24" rx="1"/>
    </g>
    <text x="56" y="620" font-family="Arial, sans-serif" font-size="22" font-weight="900" fill="#fa5902" letter-spacing="3">REQUEST CONSULTATION</text>
    <text x="56" y="704" font-family="Impact, Arial Black, sans-serif" font-size="66" font-weight="900" fill="#fff">VIBRATING</text>
    <text x="56" y="774" font-family="Impact, Arial Black, sans-serif" font-size="66" font-weight="900" fill="#fa5902">SCREEN</text>
    <text x="56" y="830" font-family="Arial, sans-serif" font-size="23" fill="#fff" opacity=".84">Accurate sizing and high-efficiency separation</text>
    <circle cx="664" cy="726" r="66" fill="#fa5902"/>
    <path d="M638 720c25 48 55 46 81 14" fill="none" stroke="#fff" stroke-width="13" stroke-linecap="round"/>
    <path d="M641 679h52v52h-52z" fill="none" stroke="#fff" stroke-width="11" stroke-linejoin="round"/>
  </svg>