<svg xmlns="http://www.w3.org/2000/svg" width="1022" height="1539" viewBox="0 0 1022 1539">
    
    <defs>
      <linearGradient id="navy" x1="0" x2="1" y1="0" y2="1">
        <stop offset="0" stop-color="#031b40"/>
        <stop offset="1" stop-color="#092a5c"/>
      </linearGradient>
      <linearGradient id="orange" x1="0" x2="1">
        <stop offset="0" stop-color="#fa5902"/>
        <stop offset="1" stop-color="#ff8a00"/>
      </linearGradient>
      <filter id="shadow" x="-20%" y="-20%" width="140%" height="140%">
        <feDropShadow dx="0" dy="18" stdDeviation="18" flood-color="#031b40" flood-opacity=".18"/>
      </filter>
      <pattern id="grid" width="42" height="42" patternUnits="userSpaceOnUse">
        <path d="M42 0H0v42" fill="none" stroke="#092a5c" stroke-width="1" opacity=".08"/>
      </pattern>
    </defs>
    <rect width="1022" height="1539" fill="#f8fafc"/>
    <rect width="1022" height="1539" fill="url(#grid)"/>
    <path d="M0 0h1022v390H0z" fill="url(#navy)"/>
    <path d="M0 338h1022v96L0 505z" fill="#fff"/>
    
    <g fill="#fa5902" transform="translate(72 82) skewX(-28)">
      <rect width="10" height="24" rx="1"/>
      <rect x="16" width="10" height="24" rx="1"/>
      <rect x="32" width="10" height="24" rx="1"/>
    </g>
    <text x="130" y="104" font-family="Arial, sans-serif" font-size="28" font-weight="800" fill="#fff" letter-spacing="3">PITHAL MACHINES</text>
    <text x="72" y="218" font-family="Impact, Arial Black, sans-serif" font-size="82" font-weight="900" fill="#fff" letter-spacing="2">VIBRATING</text>
    <text x="72" y="306" font-family="Impact, Arial Black, sans-serif" font-size="82" font-weight="900" fill="#fa5902" letter-spacing="2">SCREEN</text>
    <text x="72" y="402" font-family="Arial, sans-serif" font-size="25" font-weight="800" fill="#fa5902" letter-spacing="4">PRODUCT BROCHURE</text>
    <text x="72" y="452" font-family="Arial, sans-serif" font-size="20" font-weight="700" fill="#092a5c" letter-spacing="2">FEATURES / APPLICATIONS / BENEFITS</text>
    <rect x="72" y="512" width="878" height="510" rx="28" fill="#fff" filter="url(#shadow)"/>
    <image href="/images/products/vibrating-screen/main-machine.png" x="118" y="545" width="786" height="430" preserveAspectRatio="xMidYMid meet"/>
    <rect x="72" y="1088" width="878" height="258" rx="24" fill="#fff" stroke="#e5e7eb"/>
    <text x="118" y="1162" font-family="Arial, sans-serif" font-size="34" font-weight="900" fill="#031b40">Vibrating Screen</text>
    <rect x="118" y="1192" width="72" height="5" fill="#fa5902"/>
    <text x="118" y="1256" font-family="Arial, sans-serif" font-size="24" fill="#111827">Built for productivity, uptime and long-term value.</text>
    <g font-family="Arial, sans-serif" font-size="19" font-weight="700" fill="#092a5c">
      <text x="118" y="1314">ENGINEERED FOR DEMANDING INDUSTRIAL APPLICATIONS</text>
      <text x="118" y="1362">ROBUST BUILD / EASY SERVICE / HIGH PERFORMANCE</text>
    </g>
    <path d="M72 1430h878" stroke="#fa5902" stroke-width="4"/>
    <text x="72" y="1485" font-family="Arial, sans-serif" font-size="18" font-weight="800" fill="#6b7280" letter-spacing="3">PITHAL MACHINES PVT. LTD.</text>
  </svg>